<svg width="162" height="229" viewBox="0 0 162 229" fill="none" xmlns="http://www.w3.org/2000/svg">
<path fill-rule="evenodd" clip-rule="evenodd" d="M83.1654 40.2865C86.6191 42.3763 90.0125 43.386 91.6054 42.9738C95.5996 41.9403 95.9669 27.2711 92.8763 21.4881C89.7858 15.705 73.8976 13.1844 73.0968 24.6424C72.8189 28.6192 74.4822 32.1681 76.9397 35.064L72.5332 55.6826H85.3332L83.1654 40.2865Z" fill="#FFBB7C"/>
<path fill-rule="evenodd" clip-rule="evenodd" d="M75.9548 37.6436C74.3483 30.4686 69.7715 25.5776 70.4705 22.3706C71.1695 19.1637 74.1965 18.382 74.1965 18.382C74.1965 18.382 75.762 12.0241 84.2948 12.9734C92.8275 13.9228 98.0355 17.4802 95.7864 25.308C93.719 25.308 91.2232 24.5574 87.7721 25.8434C86.1295 26.4554 85.4224 29.6395 85.4224 29.6395H83.8629C83.8629 29.6395 81.5924 25.8609 79.3855 26.8624C77.1786 27.864 78.3822 31.7279 78.3822 31.7279L77.6139 37.6436H75.9548Z" fill="#191847"/>
<path fill-rule="evenodd" clip-rule="evenodd" d="M49.4 122.609H90.6025L96.0013 189H34.668L49.4 122.609Z" fill="#C5CFD6"/>
<path fill-rule="evenodd" clip-rule="evenodd" d="M49.4 122.609H62.0721L69.6566 189H34.668L49.4 122.609Z" fill="black" fill-opacity="0.1"/>
<path fill-rule="evenodd" clip-rule="evenodd" d="M113.24 135.762C108.61 145.62 101.375 169.549 101.375 169.549L107.517 172.367C107.517 172.367 123.102 147.212 132.626 130.017C132.182 133.888 131.73 138.246 131.312 142.827C130.319 153.68 131.311 177.128 131.845 183.901C132.18 188.158 137.942 187.266 138.48 183.89C138.571 183.318 138.942 181.311 139.496 178.316C142.212 163.628 149.322 125.188 149.334 115.776C149.339 111.989 141.969 108.586 137.576 111.235C134.558 108.002 128.848 106.139 125.567 111.479C123.481 114.873 118.525 124.509 113.24 135.762Z" fill="#FFBB7C"/>
<path fill-rule="evenodd" clip-rule="evenodd" d="M101.814 160.69L122.895 110.555C127.946 102.4 142.105 112.215 140.383 116.945C136.473 127.684 116.587 162.451 115.422 165.65L101.814 160.69Z" fill="#1F28CF"/>
<path fill-rule="evenodd" clip-rule="evenodd" d="M102.84 167.42C102.102 166.508 100.762 166.272 99.8932 167.057C99.1685 167.712 98.41 168.472 98.0794 169.047C97.3581 170.301 96.3905 172.949 96.3905 172.949C97.8398 173.789 122.441 188.048 122.441 188.048C122.441 188.048 125.395 185.266 123.362 183.729C121.328 182.193 120.006 181.137 120.006 181.137L111.296 169.091C110.965 168.633 110.323 168.54 109.878 168.884L108.389 170.035C108.389 170.035 105.818 169.81 104.552 169.076C104.008 168.761 103.381 168.087 102.84 167.42Z" fill="#E4E4E4"/>
<path fill-rule="evenodd" clip-rule="evenodd" d="M132.917 180.976C131.821 180.556 130.54 181.024 130.179 182.141C129.877 183.071 129.6 184.11 129.6 184.773C129.6 186.222 130.08 189 130.08 189C131.754 189 160.161 189 160.161 189C160.161 189 161.334 185.108 158.808 184.798C156.281 184.488 154.61 184.238 154.61 184.238L141.069 178.178C140.554 177.947 139.95 178.188 139.736 178.711L139.02 180.454C139.02 180.454 136.681 181.55 135.219 181.55C134.593 181.55 133.716 181.282 132.917 180.976Z" fill="#E4E4E4"/>
<path fill-rule="evenodd" clip-rule="evenodd" d="M150.81 119.628C150.81 133.852 144.081 167.032 144.077 170.164L129.599 170.175C129.599 170.175 132.778 125.767 131.853 125.288C130.929 124.81 93.9595 128.994 82.8718 128.994C66.8833 128.994 60.2691 118.872 59.7324 100.122H91.4052C97.854 100.814 131.492 107.626 143.984 109.967C149.332 110.969 150.81 115.71 150.81 119.628Z" fill="#2B44FF"/>
<path fill-rule="evenodd" clip-rule="evenodd" d="M134.057 39.0648L113.842 45.1569L119.003 53.7887L134.721 44.5024C142.058 44.0638 145.525 43.3374 145.121 42.3231C144.781 41.4679 143.971 41.3221 143.224 41.1879C142.643 41.0834 142.1 40.9858 141.849 40.5652C141.275 39.6048 143.288 37.1046 145.299 34.8139C147.311 32.5233 145.701 32.4166 144.729 32.6003C141.386 33.9628 137.829 36.1176 134.057 39.0648ZM129.068 93.4782L112.056 80.937L108.295 90.2697L125.142 97.2828C129.906 102.901 132.57 105.244 133.134 104.31C133.61 103.522 133.238 102.785 132.896 102.106C132.629 101.576 132.38 101.083 132.563 100.628C132.982 99.5895 136.182 99.6989 139.215 99.933C142.248 100.167 141.364 98.8124 140.633 98.1435C137.537 96.2832 133.682 94.7281 129.068 93.4782Z" fill="#FFBB7C"/>
<path fill-rule="evenodd" clip-rule="evenodd" d="M85.6315 47.1629C94.8959 64.5046 108.293 77.7983 127.714 91.6176L120.36 99.9416C98.6754 91.8515 87.2306 86.9704 81.6103 70.5861C80.1998 66.4739 79.2139 53.3652 78.3681 46.468L85.6315 47.1629Z" fill="#2026A2"/>
<path fill-rule="evenodd" clip-rule="evenodd" d="M59.7324 104.941H100.799C100.799 104.941 86.8457 62.2192 86.5432 46.2979C86.5329 45.7568 85.5374 44.8033 85.097 44.9282C80.2658 46.2979 74.7574 43.9038 74.7574 43.9038C65.0217 59.6226 61.655 78.9756 59.7324 104.941Z" fill="#F2F2F2"/>
<path fill-rule="evenodd" clip-rule="evenodd" d="M85.0582 67.8851C91.4721 95.505 91.1764 118.115 77.0161 118.115H55.1194C51.6417 94.652 60.7818 62.1203 69.2553 45.7115C69.5789 45.0849 70.2678 43.9037 71.8906 43.9037H78.2531C78.2559 43.9121 78.2587 43.9206 78.2615 43.929C80.1762 43.9448 82.2846 44.015 84.568 44.0911C96.3233 44.4829 112.714 45.0292 131.158 39.085L133.332 49.9931C116.685 60.7414 99.8287 69.0675 85.0582 67.8851Z" fill="#1F28CF"/>
</svg>
