<svg width="173" height="232" viewBox="0 0 173 232" fill="none" xmlns="http://www.w3.org/2000/svg">
<path fill-rule="evenodd" clip-rule="evenodd" d="M89.8346 44.1302C86.3809 46.2119 82.9875 47.2176 81.3946 46.8071C77.4004 45.7775 77.0331 31.1652 80.1237 25.4046C83.2142 19.644 99.1024 17.1332 99.9032 28.5468C100.181 32.5081 98.5178 36.0433 96.0603 38.9279L100.467 59.4665H87.6668L89.8346 44.1302Z" fill="#B28B67"/>
<path fill-rule="evenodd" clip-rule="evenodd" d="M87.4209 18.7654C89.1079 18.4888 93.6502 18.2986 94.4879 18.2987C95.0233 18.2987 95.6034 18.421 95.9204 17.9294C96.1801 17.5269 96.085 16.8462 96.1625 16.3791C96.2524 15.8365 96.3802 15.3008 96.5095 14.7666C96.8774 13.2463 97.4336 11.7999 98.2119 10.442C99.6723 7.89427 101.812 5.89866 104.513 4.73742C107.495 3.45522 110.871 3.16163 114.079 3.4217C117.512 3.69995 120.62 4.83332 123.861 5.89989C126.95 6.91623 130.186 7.31629 133.417 6.81997C136.672 6.31996 139.131 4.55568 141.877 2.88117C144.688 1.16687 147.9 0.0456606 151.223 0.303401C154.325 0.544073 157.183 1.82479 159.748 3.53565C162.148 5.13637 164.128 7.06223 165.246 9.77274C166.448 12.6884 166.447 15.8889 164.47 18.4657C161.603 22.2008 156.282 23.1666 151.854 23.0706C149.294 23.0152 146.779 22.5478 144.361 21.6974C141.137 20.5633 138.35 18.6411 135.334 17.0816C133.918 16.3497 132.455 15.7487 130.921 15.3157C129.433 14.8954 127.967 14.7026 126.62 15.6017C125.194 16.5528 123.917 17.4871 122.286 18.0826C120.721 18.6538 119.064 18.9733 117.397 18.9604C114.154 18.9354 110.958 17.9249 107.808 17.2481C105.239 16.6962 102.491 16.1463 99.8725 16.6767C98.7798 16.8981 97.1838 17.3551 96.7891 18.4907C103.431 19.6946 106.04 27.9093 104.168 33.9398C103.157 37.1946 97.0818 40.9995 94.7197 39.2884C93.2232 38.2043 94.1317 36.7812 94.7197 35.8417C95.8456 34.0426 96.2309 31.7315 94.1474 30.4789C92.3502 29.3986 90.4606 31.9641 90.4249 31.9612C89.9309 31.9223 85.6628 29.5085 82.7221 25.9861C79.8212 26.1581 79.3811 24.2453 80.0737 22.681C80.7664 21.1166 85.09 19.1479 87.4209 18.7654Z" fill="#191847"/>
<path fill-rule="evenodd" clip-rule="evenodd" d="M105.799 196.533C83.1181 196.533 64.7319 178.983 64.7319 157.333C64.7319 135.684 83.1181 118.133 105.799 118.133C128.479 118.133 146.865 135.684 146.865 157.333C146.865 178.983 128.479 196.533 105.799 196.533Z" fill="#C5CFD6"/>
<path fill-rule="evenodd" clip-rule="evenodd" d="M41.9533 155.243C39.9696 162.191 35.0277 175.361 28.1942 190.485L21.7007 188.591C27.3816 153.788 32.1095 130.747 34.8177 123.734C36.607 119.101 50.144 119.644 48.5867 128.967C47.9337 132.876 45.3498 143.345 41.9533 155.243ZM68.6436 130.593C79.2331 132.787 101.189 140.542 107.459 143.021C111.399 144.578 108.859 149.86 105.498 149.398C104.928 149.32 102.914 149.095 99.9094 148.758C90.2573 147.679 70.3799 145.455 55.3042 143.285C47.3661 142.143 51.6363 127.274 59.8783 128.847C62.6512 129.376 65.6006 129.962 68.6436 130.593Z" fill="#B28B67"/>
<path fill-rule="evenodd" clip-rule="evenodd" d="M34.4025 119.807C35.4851 116.274 84.6993 103.733 84.6993 103.733H88.7324V107.492L54.8194 124.755C54.8645 125.312 54.8368 125.901 54.7275 126.522C54.9724 139.32 49.4949 148.881 44.0717 158.348C40.5253 164.538 37.0022 170.688 35.1177 177.675L22.6582 175.817C23.0211 174.888 23.595 170.703 24.3797 164.981C26.3583 150.552 29.6769 126.351 34.3325 119.948C34.3487 119.926 34.3652 119.904 34.382 119.882C34.388 119.857 34.3948 119.832 34.4025 119.807Z" fill="#1F28CF"/>
<path fill-rule="evenodd" clip-rule="evenodd" d="M85.9146 135.008C89.0176 134.387 91.8752 133.833 94.3203 133.404C110.114 130.634 114.72 122.179 111.997 103.733H82.8968C78.1433 105.099 53.4396 115.459 40.6222 120.969C32.1389 124.616 34.8133 137.763 39.6174 141.184C39.6435 141.394 39.7299 141.536 39.8839 141.6C58.0977 149.149 73.6297 148.586 83.6035 148.224C87.7809 148.073 90.9833 147.957 92.9992 148.487L96.1581 138.522L85.9146 135.008Z" fill="#2B44FF"/>
<path fill-rule="evenodd" clip-rule="evenodd" d="M104.068 143.518C104.172 142.351 105.152 141.407 106.311 141.57C107.276 141.706 108.327 141.91 108.921 142.199C110.218 142.832 112.494 144.477 112.494 144.477C111.761 145.981 99.3078 171.514 99.3078 171.514C99.3078 171.514 95.3097 170.868 96.1394 168.462C96.969 166.056 97.4776 164.445 97.4776 164.445L97.988 149.626C98.0074 149.063 98.4879 148.627 99.0501 148.662L100.924 148.78C100.924 148.78 102.93 147.157 103.571 145.842C103.846 145.279 103.991 144.371 104.068 143.518Z" fill="#E4E4E4"/>
<path fill-rule="evenodd" clip-rule="evenodd" d="M28.8868 187.472C29.9806 187.054 31.2588 187.521 31.6205 188.635C31.9215 189.562 32.1992 190.596 32.1992 191.256C32.1992 192.699 31.7186 195.467 31.7186 195.467C30.045 195.467 1.63758 195.467 1.63758 195.467C1.63758 195.467 0.465036 191.59 2.99131 191.281C5.51758 190.972 7.18854 190.723 7.18854 190.723L20.7314 184.685C21.246 184.456 21.8484 184.697 22.0631 185.218L22.7788 186.954C22.7788 186.954 25.1175 188.045 26.5797 188.045C27.207 188.045 28.0867 187.778 28.8868 187.472Z" fill="#E4E4E4"/>
<path fill-rule="evenodd" clip-rule="evenodd" d="M36.3427 80.6425L55.6678 89.1294L49.4972 97.0346L35.0238 85.9378C27.7946 84.61 24.4419 83.4693 24.9658 82.5156C25.4075 81.7116 26.2294 81.6662 26.9864 81.6245C27.5761 81.592 28.1265 81.5616 28.4272 81.1764C29.1138 80.2968 27.4192 77.5796 25.7008 75.0697C23.9825 72.5599 25.593 72.6505 26.5358 72.9507C29.6884 74.7052 32.9574 77.2691 36.3427 80.6425ZM122.868 93.6354L133.797 91.467C141.209 111.003 145.628 121.708 147.053 123.583C148.099 124.958 154.546 128.5 158.911 130.392C160.662 131.151 160.286 132.631 159.772 133.105C156.532 136.092 153.519 135.045 150.239 133.905C149.29 133.575 148.318 133.237 147.312 132.988C144.708 132.341 143.915 133.68 143.166 134.946C142.503 136.066 141.874 137.129 140.052 136.705C140.135 136.347 140.237 135.947 140.347 135.514C141.057 132.72 142.105 128.598 140.55 126.203C139.753 124.974 133.859 114.118 122.868 93.6354Z" fill="#B28B67"/>
<path fill-rule="evenodd" clip-rule="evenodd" d="M93.1623 50.577L88.5505 49.786C78.5056 59.5301 74.4064 82.9399 67.7122 86.0386C61.3831 88.9683 52.4111 86.1333 41.7464 82.3053L38.4804 89.6024C48.1703 100.086 68.8134 108.942 77.1809 103.886C90.5589 95.8025 93.6472 66.9299 93.1623 50.577Z" fill="#DB2721"/>
<path fill-rule="evenodd" clip-rule="evenodd" d="M113.268 108.533C113.268 108.533 85.5302 108.533 72.4615 108.533C70.5968 108.533 70.9482 105.841 71.2177 104.482C74.3286 88.8021 86.4722 71.8995 86.4722 49.5791L98.2426 47.7334C107.978 63.3912 111.345 82.6692 113.268 108.533Z" fill="#DDE3E9"/>
<path fill-rule="evenodd" clip-rule="evenodd" d="M98.8672 47.7334H99.0016C125.402 64.0024 141.358 89.2218 146.867 123.391L138.314 125.067C132.648 118.466 125.656 107.663 117.337 92.6577C119.889 101.697 121.753 110.967 122.334 119.733H85.602C78.4911 101.763 94.3411 47.7334 94.3411 47.7334H96.8771H98.8672Z" fill="#FF4133"/>
</svg>
