<svg width="173" height="228" viewBox="0 0 173 228" fill="none" xmlns="http://www.w3.org/2000/svg">
<path fill-rule="evenodd" clip-rule="evenodd" d="M89.8346 40.1302C86.3809 42.2119 82.9875 43.2176 81.3946 42.8071C77.4004 41.7775 77.0331 27.1652 80.1237 21.4046C83.2142 15.644 99.1024 13.1332 99.9032 24.5468C100.181 28.5081 98.5178 32.0433 96.0603 34.9279L100.467 55.4665H87.6668L89.8346 40.1302Z" fill="#FFDCBB"/>
<path fill-rule="evenodd" clip-rule="evenodd" d="M95.6685 21.8668C88.2822 21.9197 83.143 21.6085 80.2018 20.8001C80.3359 18.2968 82.9383 15.4668 89.8018 15.4668C97.4381 15.4668 101.535 19.9177 101.535 25.0668C101.535 29.7711 98.5068 35.5003 96.2018 35.7335C95.6045 35.6028 95.0946 34.8833 94.5875 33.8918C95.537 33.43 96.2018 32.3414 96.2018 30.9335C96.2018 29.5801 95.0079 28.2668 93.5352 28.2668C92.998 28.2668 92.4979 28.4415 92.0793 28.7292C91.1115 27.1708 89.8989 26.0068 88.2018 26.1335L89.2685 22.9335L95.6685 22.4001V21.8668Z" fill="#191847"/>
<path fill-rule="evenodd" clip-rule="evenodd" d="M128.732 122.134C137.569 122.134 144.732 129.297 144.732 138.134V172.267C144.732 181.104 137.569 188.267 128.732 188.267H82.3324C73.4959 188.267 66.3324 181.104 66.3324 172.267V138.134C66.3324 129.297 73.4959 122.134 82.3324 122.134H128.732ZM125.799 137.067C128.008 137.067 129.799 138.858 129.799 141.067V169.334C129.799 171.543 128.008 173.334 125.799 173.334H85.2658C83.0566 173.334 81.2658 171.543 81.2658 169.334V141.067C81.2658 138.858 83.0566 137.067 85.2658 137.067H125.799Z" fill="#C5CFD6"/>
<path fill-rule="evenodd" clip-rule="evenodd" d="M41.9533 151.243C39.9696 158.191 35.0277 171.361 28.1942 186.485L21.7007 184.591C27.3816 149.788 32.1095 126.747 34.8177 119.734C36.607 115.101 50.144 115.644 48.5867 124.967C47.9337 128.876 45.3498 139.345 41.9533 151.243ZM68.6436 126.593C79.2331 128.787 101.189 136.542 107.459 139.021C111.399 140.578 108.859 145.86 105.498 145.398C104.928 145.32 102.914 145.095 99.9094 144.758C90.2573 143.679 70.3799 141.455 55.3042 139.285C47.3661 138.143 51.6363 123.274 59.8783 124.847C62.6512 125.376 65.6006 125.962 68.6436 126.593Z" fill="#FFDCBB"/>
<path fill-rule="evenodd" clip-rule="evenodd" d="M34.4025 115.807C35.4851 112.274 84.6993 99.7334 84.6993 99.7334H88.7324V103.492L54.8194 120.755C54.8645 121.312 54.8368 121.901 54.7275 122.522C54.9724 135.32 49.4949 144.881 44.0717 154.348C40.5253 160.538 37.0022 166.688 35.1177 173.675L22.6582 171.817C23.0211 170.888 23.595 166.703 24.3797 160.981C26.3583 146.552 29.6769 122.351 34.3325 115.948C34.3487 115.926 34.3652 115.904 34.382 115.882C34.388 115.857 34.3948 115.832 34.4025 115.807Z" fill="#1F28CF"/>
<path fill-rule="evenodd" clip-rule="evenodd" d="M85.9146 131.008C89.0176 130.387 91.8752 129.833 94.3203 129.404C110.114 126.634 114.72 118.179 111.997 99.7334H82.8968C78.1433 101.099 53.4396 111.459 40.6222 116.969C32.1389 120.616 34.8133 133.763 39.6174 137.184C39.6435 137.394 39.7299 137.536 39.8839 137.6C58.0977 145.149 73.6297 144.586 83.6035 144.224C87.7809 144.073 90.9833 143.957 92.9992 144.487L96.1581 134.522L85.9146 131.008Z" fill="#2B44FF"/>
<path fill-rule="evenodd" clip-rule="evenodd" d="M104.068 139.518C104.172 138.352 105.152 137.408 106.311 137.571C107.276 137.707 108.327 137.91 108.921 138.2C110.218 138.832 112.494 140.478 112.494 140.478C111.761 141.982 99.3078 167.514 99.3078 167.514C99.3078 167.514 95.3097 166.869 96.1394 164.463C96.969 162.057 97.4776 160.445 97.4776 160.445L97.988 145.627C98.0074 145.064 98.4879 144.628 99.0501 144.663L100.924 144.781C100.924 144.781 102.93 143.157 103.571 141.843C103.846 141.279 103.991 140.371 104.068 139.518Z" fill="#E4E4E4"/>
<path fill-rule="evenodd" clip-rule="evenodd" d="M28.8868 183.473C29.9806 183.055 31.2588 183.522 31.6205 184.636C31.9215 185.563 32.1992 186.597 32.1992 187.257C32.1992 188.7 31.7186 191.468 31.7186 191.468C30.045 191.468 1.63758 191.468 1.63758 191.468C1.63758 191.468 0.465036 187.591 2.99131 187.282C5.51758 186.973 7.18854 186.724 7.18854 186.724L20.7314 180.686C21.246 180.457 21.8484 180.698 22.0631 181.219L22.7788 182.955C22.7788 182.955 25.1175 184.046 26.5797 184.046C27.207 184.046 28.0867 183.778 28.8868 183.473Z" fill="#E4E4E4"/>
<path fill-rule="evenodd" clip-rule="evenodd" d="M148.454 117.44C146.365 114.589 133.781 83.9332 133.781 83.9332L124.389 85.6339C124.389 85.6339 140.741 118.083 141.905 119.948C143.417 122.371 142.298 126.476 141.539 129.259C141.421 129.69 141.312 130.089 141.223 130.445C143.038 130.901 143.686 129.849 144.368 128.739C145.14 127.486 145.956 126.161 148.549 126.853C149.551 127.12 150.517 127.475 151.461 127.822C154.721 129.019 157.716 130.119 161.009 127.188C161.531 126.723 161.933 125.249 160.194 124.458C155.863 122.49 149.476 118.834 148.454 117.44ZM39.7816 101.629L56.794 89.1365L60.5548 98.433L43.7081 105.419C38.9435 111.016 36.2793 113.349 35.7153 112.418C35.2398 111.634 35.6115 110.899 35.9539 110.223C36.2206 109.696 36.4695 109.204 36.2862 108.751C35.8678 107.717 32.6673 107.826 29.6345 108.059C26.6017 108.292 27.4855 106.943 28.2168 106.276C31.3126 104.423 35.1675 102.874 39.7816 101.629Z" fill="#FFDCBB"/>
<path fill-rule="evenodd" clip-rule="evenodd" d="M87.5265 44.8223L93.2305 47.1615C93.1706 48.6513 93.1765 50.7706 93.1832 53.1987C93.2044 60.8193 93.2341 71.4811 91.2653 75.265C84.4445 88.3741 70.439 95.2027 54.8401 102.808C52.7493 103.828 50.6298 104.861 48.4951 105.925L44.2033 97.1637C44.7004 96.8114 45.1931 96.457 45.6815 96.1007C45.0073 95.8645 44.4451 95.3309 44.1994 94.6015C43.7761 93.3454 44.4513 91.984 45.7074 91.5608C48.26 90.7007 50.6408 90.3381 52.8296 90.4952C68.8144 77.026 79.5752 61.258 87.5265 44.8223Z" fill="#69A1AC"/>
<path fill-rule="evenodd" clip-rule="evenodd" d="M113.268 104.485C113.268 104.485 88.1169 107.248 73.6749 104.485C72.4821 104.257 72.5345 99.1151 73.0876 97.7107C81.7021 75.8412 87.3688 59.8317 87.3688 44.6416C89.7397 45.8801 95.6676 45.0128 95.6676 45.0128C106.288 60.6667 111.17 78.6277 113.268 104.485Z" fill="#191847"/>
<path fill-rule="evenodd" clip-rule="evenodd" d="M139.996 164.267C127.001 159.076 113.796 160.789 101.9 162.333C93.6579 163.402 86.0444 164.39 79.565 162.943C74.2952 135.85 81.6058 105.908 87.5949 81.3783C91.3397 66.0406 94.5679 52.8191 93.8808 43.7334H99.1165L99.1165 43.7335L99.947 43.7335C99.947 43.7335 130.344 62.3894 145.165 104.75C146.325 104.964 147.426 105.338 148.464 105.875C149.445 106.384 148.071 109.435 146.905 110.078C147.326 111.462 147.73 112.87 148.115 114.301L138.042 117.265C130.746 98.033 122.099 86.9382 114.956 80.5749C114.91 82.7112 114.686 84.8606 114.46 87.0235C114.049 90.9626 113.633 94.9465 114.284 98.9779C114.412 99.7669 114.566 100.562 114.745 101.362C115.769 101.483 116.637 102.261 116.825 103.329L117.103 104.905C117.249 105.732 116.952 106.536 116.382 107.071C118.864 114.299 122.851 121.858 126.85 129.439C133.158 141.399 139.495 153.414 139.996 164.267Z" fill="#89C5CC"/>
<path fill-rule="evenodd" clip-rule="evenodd" d="M97.7436 44.2666L100.495 52.7282L94.9542 59.0714L99.9618 64.0562L87.8468 84.7999L102.662 64.0976L97.7436 59.0714L102.662 53.4658L97.7436 44.2666Z" fill="black" fill-opacity="0.1"/>
<path fill-rule="evenodd" clip-rule="evenodd" d="M91.4018 92.7999C90.2236 92.7999 89.2685 91.8447 89.2685 90.6665C89.2685 89.4883 90.2236 88.5332 91.4018 88.5332C92.58 88.5332 93.5352 89.4883 93.5352 90.6665C93.5352 91.8447 92.58 92.7999 91.4018 92.7999ZM88.7352 105.067C87.5569 105.067 86.6018 104.111 86.6018 102.933C86.6018 101.755 87.5569 100.8 88.7352 100.8C89.9134 100.8 90.8685 101.755 90.8685 102.933C90.8685 104.111 89.9134 105.067 88.7352 105.067ZM86.0685 115.2C86.0685 116.378 87.0236 117.333 88.2018 117.333C89.38 117.333 90.3352 116.378 90.3352 115.2C90.3352 114.022 89.38 113.067 88.2018 113.067C87.0236 113.067 86.0685 114.022 86.0685 115.2Z" fill="black" fill-opacity="0.4"/>
</svg>
