<svg width="162" height="228" viewBox="0 0 162 228" fill="none" xmlns="http://www.w3.org/2000/svg">
<path fill-rule="evenodd" clip-rule="evenodd" d="M78.8998 40.1583C82.3535 42.2416 85.747 43.2481 87.3399 42.8372C91.3342 41.8069 91.7014 27.1844 88.6108 21.4198C85.5203 15.6551 69.6322 13.1425 68.8313 24.5641C68.5534 28.5281 70.2167 32.0658 72.6742 34.9524L68.2676 55.5056H81.0676L78.8998 40.1583Z" fill="#FFE1C6"/>
<path fill-rule="evenodd" clip-rule="evenodd" d="M90.1325 16.0109C90.1325 18.8613 87.8996 21.1898 85.0887 21.3403C83.4804 21.8369 81.4139 22.2015 79.1222 22.3553C79.3447 23.1925 79.4656 24.1435 79.4656 25.2183C79.4656 26.1674 79.3609 27.1739 79.1682 28.1959C78.6712 27.6047 78.0066 27.2188 77.3321 27.2188C75.4453 27.2188 74.132 28.772 74.132 30.4211C74.132 32.5141 75.3396 34.0282 77.1023 34.1492C75.515 37.1981 73.3197 39.4942 71.1266 39.4942C66.9609 39.4942 63.9989 33.9208 63.9989 27.9285C63.9989 27.7179 64.0031 27.5088 64.0113 27.3012C62.6012 28.2696 61.2946 29.5388 59.9786 30.8173L59.9785 30.8173C57.182 33.5338 54.343 36.2917 50.3783 36.2917C42.4457 36.2917 39.2954 20.2805 50.3783 20.2805C57.9153 20.2805 61.6229 21.3801 64.818 23.0063C65.4485 21.2275 66.4102 19.7322 67.5861 18.6883C67.8679 18.3716 68.2988 18.0685 68.8542 17.7874C69.1984 17.5985 69.5548 17.4448 69.9211 17.3295C71.8479 16.6213 74.638 16.1218 77.7544 16.0129C78.3365 15.9926 78.9082 15.9866 79.4659 15.9941C79.4749 13.0543 81.8593 10.6738 84.7992 10.6738C87.7447 10.6738 90.1325 13.0633 90.1325 16.0109Z" fill="#191847"/>
<path fill-rule="evenodd" clip-rule="evenodd" d="M49.4 122.753H90.6025L96.0013 188.933H34.668L49.4 122.753Z" fill="#C5CFD6"/>
<path fill-rule="evenodd" clip-rule="evenodd" d="M49.4 122.753H62.0721L69.6566 188.933H34.668L49.4 122.753Z" fill="black" fill-opacity="0.1"/>
<path fill-rule="evenodd" clip-rule="evenodd" d="M113.238 135.863C108.608 145.69 101.373 169.543 101.373 169.543L107.515 172.352C107.515 172.352 123.1 147.277 132.624 130.137C132.18 133.995 131.729 138.34 131.31 142.907C130.317 153.725 131.309 177.098 131.843 183.85C132.178 188.093 137.94 187.204 138.478 183.839C138.569 183.269 138.94 181.268 139.494 178.282C142.211 163.641 149.32 125.324 149.332 115.941C149.337 112.166 141.967 108.775 137.574 111.414C134.557 108.192 128.846 106.335 125.565 111.657C123.479 115.041 118.523 124.647 113.238 135.863Z" fill="#FFE1C6"/>
<path fill-rule="evenodd" clip-rule="evenodd" d="M101.814 160.713L122.895 110.737C127.946 102.608 142.105 112.392 140.383 117.107C136.473 127.812 116.587 162.468 115.422 165.657L101.814 160.713Z" fill="#1F28CF"/>
<path fill-rule="evenodd" clip-rule="evenodd" d="M102.84 167.421C102.102 166.511 100.761 166.276 99.8916 167.06C99.1674 167.713 98.4098 168.47 98.0794 169.043C97.3581 170.293 96.3905 172.932 96.3905 172.932C97.8398 173.77 122.441 187.983 122.441 187.983C122.441 187.983 125.395 185.21 123.362 183.679C121.328 182.147 120.006 181.095 120.006 181.095L111.296 169.086C110.965 168.63 110.323 168.537 109.877 168.881L108.389 170.028C108.389 170.028 105.818 169.803 104.552 169.072C104.008 168.758 103.38 168.086 102.84 167.421Z" fill="#E4E4E4"/>
<path fill-rule="evenodd" clip-rule="evenodd" d="M132.913 180.933C131.819 180.514 130.54 180.982 130.178 182.096C129.877 183.023 129.6 184.058 129.6 184.719C129.6 186.163 130.08 188.932 130.08 188.932C131.754 188.932 160.161 188.932 160.161 188.932C160.161 188.932 161.334 185.053 158.808 184.744C156.281 184.435 154.61 184.185 154.61 184.185L141.068 178.144C140.553 177.914 139.95 178.155 139.736 178.676L139.02 180.414C139.02 180.414 136.681 181.506 135.219 181.506C134.592 181.506 133.713 181.238 132.913 180.933Z" fill="#E4E4E4"/>
<path fill-rule="evenodd" clip-rule="evenodd" d="M150.812 119.782C150.812 133.96 144.083 167.035 144.079 170.157L129.601 170.168C129.601 170.168 132.78 125.9 131.855 125.423C130.931 124.947 93.9615 129.117 82.8738 129.117C66.8852 129.117 60.2711 119.028 59.7344 100.337H91.4071C97.856 101.027 131.494 107.817 143.986 110.151C149.334 111.15 150.812 115.876 150.812 119.782Z" fill="#2B44FF"/>
<path fill-rule="evenodd" clip-rule="evenodd" d="M107.589 106.882C97.4603 127.991 54.8223 113.738 54.8223 113.738C54.8223 110.08 56.2721 106.413 57.7947 102.562C59.4274 98.4318 61.1438 94.0902 61.2464 89.3212C61.4353 80.5476 63.0746 53.9651 69.9163 44.9847C70.0408 44.5789 70.1673 44.1718 70.2956 43.7637L70.7693 43.9867C70.8433 43.9104 70.9177 43.836 70.9928 43.7637L85.921 46.0735C85.921 52.8305 90.2421 59.2376 94.1319 65.0053C95.0784 66.4087 95.9993 67.7742 96.8262 69.0977C97.9094 70.8313 99.1317 72.5958 100.384 74.4041C106.728 83.5616 113.848 93.8389 107.589 106.882Z" fill="#D3C1E2"/>
<path fill-rule="evenodd" clip-rule="evenodd" d="M88.459 102.892C89.4573 97.736 90.105 94.294 90.4019 92.5656C98.355 101.559 102.949 106.108 104.186 106.212C106.51 106.408 108.228 104.346 108.717 104.926C109.525 107.327 107.242 113.339 102.878 114.213C100.794 114.631 97.5688 110.33 96.2401 108.806C95.7175 108.207 93.1238 106.235 88.459 102.892ZM102.196 75.4033C104.258 75.4033 105.365 76.2562 106.584 77.977C107.803 79.6978 108.957 87.8135 107 87.8135C105.043 87.8135 96.8427 84.6762 96.8427 82.5671C96.8427 80.458 102.438 79.5648 102.438 77.977C102.438 76.3892 100.135 75.4033 102.196 75.4033Z" fill="#FFE1C6"/>
<path fill-rule="evenodd" clip-rule="evenodd" d="M67.5013 53.748C62.2636 75.5962 64.3952 94.0227 84.296 110.737C84.062 111.577 83.9218 112.078 83.9218 112.078C60.5619 95.7403 60.5527 75.9408 67.5013 53.748Z" fill="black" fill-opacity="0.2"/>
</svg>
