<svg width="216" height="200" viewBox="0 0 216 200" fill="none" xmlns="http://www.w3.org/2000/svg">
<path fill-rule="evenodd" clip-rule="evenodd" d="M106.57 197.602C150.705 197.602 186.482 161.855 186.482 117.76C186.482 73.6644 150.705 37.918 106.57 37.918C62.4361 37.918 26.6582 73.6644 26.6582 117.76C26.6582 161.855 62.4361 197.602 106.57 197.602Z" fill="#AADDC7"/>
<mask id="mask0" style="mask-type:alpha" maskUnits="userSpaceOnUse" x="0" y="0" width="216" height="200">
<path fill-rule="evenodd" clip-rule="evenodd" d="M106.57 197.602C143.192 197.602 174.061 172.988 183.508 139.414C185.445 132.528 215.493 109.823 215.493 102.318C215.493 58.2228 150.704 0 106.57 0C62.4355 0 -29.5182 178.633 9.36682 197.602C32.5918 208.931 47.8273 172.061 50.9248 175.064C65.3129 189.014 84.9375 197.602 106.57 197.602Z" fill="white"/>
</mask>
<g mask="url(#mask0)">
<path fill-rule="evenodd" clip-rule="evenodd" d="M110.474 46.8068C115.598 49.8923 120.632 51.3831 122.995 50.7745C128.921 49.2484 129.465 27.59 124.881 19.0516C120.296 10.5131 96.7253 6.79151 95.5373 23.7089C95.125 29.5804 97.5925 34.8203 101.238 39.096L94.7012 69.5386H113.69L110.474 46.8068Z" fill="#B28B67"/>
<path fill-rule="evenodd" clip-rule="evenodd" d="M111.424 25.5771C113.066 23.1336 114.643 21.2698 116.694 20.1874C125.042 20.3192 126.02 18.8239 126.02 13.7842C124.671 12.8203 119.914 11.1971 114.586 10.7405C111.868 9.96337 108.648 10.1095 105.547 11.4058C101.718 12.4912 98.4756 14.8288 97.0436 19.2051C91.8624 28.1384 95.795 37.4378 101.094 40.6145C102.505 38.9447 103.736 37.3264 104.835 35.7773C103.952 34.9161 103.404 33.7141 103.404 32.3843C103.404 29.7648 105.53 27.6412 108.152 27.6412C108.344 27.6412 108.535 27.6527 108.721 27.675C108.839 30.9501 109.325 42.0307 110.6 45.8795C112.104 50.4172 120.877 51.5313 123.937 51.5313C126.58 51.5313 126.49 49.0308 126.426 47.2387C126.416 46.9806 126.408 46.7372 126.408 46.5181C126.408 46.0603 125.812 46.0615 125.138 46.0628C124.264 46.0645 123.259 46.0665 123.259 45.0642C123.259 43.9716 124.77 43.1335 126.123 42.3836C126.966 41.9157 127.748 41.4821 128.062 41.0424C129.054 39.6553 129.388 37.7843 127.892 37.7843C127.074 37.7843 125.952 38.2555 124.602 38.8223C122.564 39.6779 120.006 40.7517 117.192 40.7517C112.543 40.7517 111.437 25.7637 111.424 25.5771Z" fill="#191847"/>
<path fill-rule="evenodd" clip-rule="evenodd" d="M79.388 135.151C80.8146 154.606 172.721 211.881 173.257 213.488C173.615 214.56 144.65 281.221 144.65 281.221L152.684 284.34C152.684 284.34 197.111 213.741 194.829 206.219C191.562 195.448 123.52 135.358 123.52 135.358L79.388 135.151Z" fill="#B28B67"/>
<path fill-rule="evenodd" clip-rule="evenodd" d="M146.765 271.184L159.881 275.955C187.54 244.775 198.381 219.049 196.405 205.941C194.428 192.833 125.342 135.199 125.342 135.199L78.4474 135.199C80.0475 180.252 165.233 213.66 166.373 215.579C167.512 217.499 156.299 236.303 146.765 271.184Z" fill="#2F3676"/>
<path fill-rule="evenodd" clip-rule="evenodd" d="M89.9548 135.151L49.0129 233.354L8.77344 316.377H18.2672L122.136 135.151H89.9548Z" fill="#997659"/>
<path fill-rule="evenodd" clip-rule="evenodd" d="M12.4082 299.13L33.5035 303.083C49.8144 279.124 118.076 180.884 125.56 135.151H78.5972C53.6035 168.211 27.9558 274.775 12.4082 299.13Z" fill="#5C63AB"/>
<path fill-rule="evenodd" clip-rule="evenodd" d="M187.656 99.5193L156.417 103.777L162.021 117.76L187.369 107.72C198.295 108.797 203.578 108.537 203.219 106.942C202.916 105.597 201.754 105.191 200.685 104.817C199.851 104.525 199.074 104.253 198.8 103.572C198.177 102.016 201.728 98.7906 205.229 95.8751C208.729 92.9596 206.379 92.4231 204.902 92.4662C199.654 93.6954 193.905 96.0465 187.656 99.5193ZM35.6765 176.186C37.9951 171.486 58.2828 111.001 58.2828 111.001L75.6082 111.066C75.6082 111.066 47.1115 175.138 45.891 178.16C44.3054 182.086 46.9987 187.79 48.8249 191.658C49.1074 192.256 49.3692 192.81 49.5912 193.307C47.0572 194.44 45.8399 193.071 44.5566 191.627C43.1072 189.997 41.5735 188.271 37.963 189.95C36.5682 190.598 35.2482 191.365 33.9586 192.114C29.5042 194.701 25.412 197.077 19.8452 193.645C18.9627 193.101 17.9956 191.053 20.3323 189.452C26.1538 185.464 34.5429 178.483 35.6765 176.186Z" fill="#997659"/>
<path fill-rule="evenodd" clip-rule="evenodd" d="M105.739 56.1001L119.304 57.0029C122.645 87.2015 140.843 106.276 181.586 99.8186L186.999 138.708C148.918 143.625 115.521 128.392 108.677 87.1502C106.905 76.4739 105.506 65.3632 105.739 56.1001Z" fill="#AFB9C5"/>
<path fill-rule="evenodd" clip-rule="evenodd" d="M38.0527 168.353C47.4711 118.285 67.35 79.5498 97.6895 52.1475H98.9913H99.0356L99.0464 52.1601L119.599 56.8631C119.599 81.5302 125.092 99.9613 130.373 117.681C132.653 125.333 134.894 132.853 136.636 140.685H81.1277C80.3458 149.658 79.8656 158.881 79.6154 168.353H38.0527Z" fill="#C5CFD6"/>
<path fill-rule="evenodd" clip-rule="evenodd" d="M81.127 140.685C82.7189 122.417 85.5616 105.183 90.2609 88.9844C89.2309 106.308 88.945 127.798 92.4086 140.685H81.127Z" fill="black" fill-opacity="0.1"/>
</g>
</svg>
