<svg width="204" height="206" viewBox="0 0 204 206" fill="none" xmlns="http://www.w3.org/2000/svg">
<path fill-rule="evenodd" clip-rule="evenodd" d="M95.9356 203.602C51.8013 203.602 16.0235 167.855 16.0235 123.76C16.0235 79.6644 51.8013 43.918 95.9356 43.918C140.07 43.918 175.848 79.6644 175.848 123.76C175.848 167.855 140.07 203.602 95.9356 203.602Z" fill="#DDAAC4"/>
<mask id="mask0" style="mask-type:alpha" maskUnits="userSpaceOnUse" x="0" y="0" width="204" height="206">
<path fill-rule="evenodd" clip-rule="evenodd" d="M95.9352 203.602C71.9439 203.602 50.4219 193.039 35.774 176.313C28.0619 167.508 8.00661 187.893 4.7484 176.313C4.03468 173.777 -5.57037 141.999 4.7484 112.973C22.4423 63.202 65.0583 0 95.9352 0C156.069 0 232.023 184.633 193.138 203.602C169.913 214.931 154.678 178.061 151.58 181.064C137.192 195.014 117.567 203.602 95.9352 203.602Z" fill="white"/>
</mask>
<g mask="url(#mask0)">
<path fill-rule="evenodd" clip-rule="evenodd" d="M102.266 54.7537C93.2233 54.7537 89.9346 43.9373 84.7972 38.0015C81.1215 33.7546 74.8481 35.021 72.9912 29.0754C68.3219 14.1247 80.8194 3.60205 97.1231 3.60205C113.427 3.60205 124.42 12.8307 126.793 26.7038C129.167 40.577 118.57 54.7537 102.266 54.7537Z" fill="#191847"/>
<path fill-rule="evenodd" clip-rule="evenodd" d="M92.0316 52.8068C86.9081 55.8923 81.8739 57.3831 79.5108 56.7745C73.5852 55.2484 73.0404 33.59 77.6253 25.0516C82.2102 16.5131 105.781 12.7915 106.969 29.7089C107.381 35.5804 104.913 40.8203 101.268 45.096L107.805 75.5386H88.8157L92.0316 52.8068Z" fill="#B28B67"/>
<path fill-rule="evenodd" clip-rule="evenodd" d="M105.733 17.8313C120.278 32.0605 105.677 47.1845 101.677 47.1845C101.419 45.1314 100.631 43.1344 99.4766 41.2336C100.09 40.4404 100.453 39.4538 100.453 38.3847C100.453 35.7651 98.272 33.6416 95.5817 33.6416C94.7415 33.6416 93.9509 33.8487 93.261 34.2134C87.4297 29.2447 80.1161 25.7808 76.4847 25.0997C70.1686 23.9151 91.1879 3.60205 105.733 17.8313Z" fill="#191847"/>
<path fill-rule="evenodd" clip-rule="evenodd" d="M114.133 141.151L84.359 238.404L69.9358 321.11H58.627L73.8674 141.151H114.133Z" fill="#997659"/>
<path fill-rule="evenodd" clip-rule="evenodd" d="M124.785 141.151C122.762 194.548 125.142 222.091 125.595 226.942C126.048 231.794 132.245 263.25 146.918 322.739L134.868 318.604C111.679 264.044 103.777 235.688 101.118 228.523C98.458 221.359 91.3943 192.235 79.9265 141.151H124.785Z" fill="#B28B67"/>
<path fill-rule="evenodd" clip-rule="evenodd" d="M118.09 141.151L105.431 190.7H66.7639L72.5292 141.151H118.09Z" fill="#69A1AC"/>
<path fill-rule="evenodd" clip-rule="evenodd" d="M125.21 141.151C131.458 159.863 127.583 190.7 127.583 190.7H88.1256L77.2756 141.151H125.21Z" fill="#89C5CC"/>
<path fill-rule="evenodd" clip-rule="evenodd" d="M175.56 169.834C172.609 165.503 155.54 119.441 155.54 119.441L141.526 121.474C141.526 121.474 164.09 170.387 165.719 173.21C167.836 176.877 165.964 182.9 164.694 186.984C164.498 187.616 164.316 188.201 164.165 188.724C166.832 189.494 167.847 187.969 168.917 186.361C170.125 184.544 171.403 182.622 175.212 183.782C176.684 184.23 178.098 184.806 179.479 185.368C184.251 187.311 188.634 189.095 193.669 184.923C194.467 184.261 195.139 182.098 192.602 180.838C186.282 177.698 177.002 171.952 175.56 169.834ZM23.5042 148.426L47.3881 128.195L53.9157 141.552L29.7071 153.623C23.2352 162.391 19.5338 166.117 18.603 164.799C17.8181 163.688 18.2922 162.564 18.7288 161.528C19.069 160.722 19.3864 159.969 19.0684 159.318C18.342 157.832 13.6169 158.324 9.15277 158.982C4.68869 159.64 5.85699 157.554 6.87025 156.493C11.2599 153.433 16.8046 150.744 23.5042 148.426Z" fill="#B28B67"/>
<path fill-rule="evenodd" clip-rule="evenodd" d="M96.9676 62.3623L88.2842 59.4932C76.505 88.8926 58.9378 117.338 29.5866 141.365L36.8448 153.876C62.6403 138.694 87.0589 126.9 96.9676 104.119C100.293 96.4734 97.239 71.5045 96.9676 62.3623Z" fill="#C5CFD6"/>
<path fill-rule="evenodd" clip-rule="evenodd" d="M126.793 145.104C126.793 145.104 89.4815 149.057 68.0566 145.104C66.287 144.778 66.0078 141.818 66.8285 139.809C79.6082 108.523 88.3716 81.2241 88.3716 59.4937C91.889 61.2654 100.683 60.0247 100.683 60.0247C116.439 82.4186 123.682 108.113 126.793 145.104Z" fill="#323337"/>
<path fill-rule="evenodd" clip-rule="evenodd" d="M105.198 58.1473C104.792 57.8735 104.577 57.7373 104.577 57.7373L104.6 58.1473H98.0337C97.7038 60.0861 97.2204 67.2722 96.5157 77.7505C93.9548 115.827 88.47 197.378 76.7959 228.587H157.345C155.646 193.105 142.552 150.674 128.989 114.646C138.998 124.595 150.686 141.272 160.133 169.035L175.221 165.165C159.845 98.9681 114.797 64.8285 106.056 58.7353C105.97 58.5383 105.885 58.3423 105.801 58.1473H105.198Z" fill="#DDE3E9"/>
</g>
</svg>
