<svg width="24" height="24" viewBox="0 0 24 24" fill="none" xmlns="http://www.w3.org/2000/svg">
<path d="M17.6019 11.3803L17.6019 11.8803H18.1019H19.137C19.2978 11.8803 19.4145 12.0064 19.4145 12.1457V21.124C19.4145 21.2633 19.2977 21.3895 19.137 21.3895H5.02303C4.8625 21.3895 4.74561 21.2633 4.74561 21.124V12.1457C4.74561 12.0063 4.86234 11.8803 5.02303 11.8803H6.05812H6.55812V11.3803V7.98334C6.55812 7.9833 6.55812 7.98327 6.55812 7.98324C6.55845 6.42015 7.16059 4.99069 8.15143 3.94804L8.15214 3.94728C9.13774 2.90581 10.5389 2.24064 12.08 2.24195L12.0808 2.24195C13.6214 2.24064 15.0224 2.90578 16.0081 3.94731L16.0088 3.94801C16.9995 4.99067 17.6018 6.42021 17.6018 7.98324L17.6019 11.3803ZM9.51595 5.18125L9.5145 5.18278C8.84369 5.8894 8.41768 6.8764 8.41768 7.98328V11.3803V11.8803H8.91768H15.2423H15.7423V11.3803V7.98328C15.7423 6.8764 15.3163 5.8894 14.6455 5.18279L14.6442 5.18138C13.9694 4.47599 13.076 4.05882 12.0811 4.05747L12.0797 4.05747C11.0841 4.05882 10.1908 4.4763 9.51595 5.18125Z" stroke="#6080FF"/>
</svg>
